<svg width="56" height="33" viewBox="0 0 56 33" fill="none" xmlns="http://www.w3.org/2000/svg">
<path d="M30.7501 16.375V27.21C30.8051 27.6225 30.6676 28.0625 30.3513 28.3512C30.2241 28.4787 30.073 28.5798 29.9067 28.6488C29.7403 28.7178 29.562 28.7534 29.3819 28.7534C29.2019 28.7534 29.0235 28.7178 28.8572 28.6488C28.6909 28.5798 28.5398 28.4787 28.4126 28.3512L25.6488 25.5875C25.4989 25.4408 25.385 25.2615 25.3158 25.0636C25.2466 24.8656 25.2241 24.6543 25.2501 24.4463V16.375H25.2088L17.2888 6.2275C17.0655 5.94085 16.9648 5.57748 17.0086 5.21678C17.0524 4.85608 17.2372 4.52738 17.5226 4.3025C17.7838 4.11 18.0726 4 18.3751 4H37.6251C37.9276 4 38.2163 4.11 38.4776 4.3025C38.763 4.52738 38.9478 4.85608 38.9916 5.21678C39.0353 5.57748 38.9346 5.94085 38.7113 6.2275L30.7913 16.375H30.7501Z" fill="#013F2D"/>
</svg>
